<svg width="50" height="44" viewBox="0 0 50 44" fill="none" xmlns="http://www.w3.org/2000/svg">
<path d="M24.2863 6.69388L24.9935 7.39959L25.6999 6.69308L27.7505 4.64209C27.7507 4.64183 27.751 4.64157 27.7513 4.64131C32.6172 -0.21403 40.4952 -0.21377 45.3609 4.64208C50.2153 9.48688 50.2099 17.3192 45.3633 22.1838C45.363 22.1841 45.3627 22.1844 45.3624 22.1847L25.6148 41.8812L25.6146 41.8815C25.2728 42.2225 24.7179 42.2225 24.3761 41.8815L4.64142 22.1865C-0.213812 17.3409 -0.213802 9.4857 4.64142 4.64024L4.64142 4.64024C9.49774 -0.20635 17.3722 -0.20634 22.2285 4.64023L22.2285 4.64026L24.2863 6.69388Z" stroke="white" stroke-width="2"/>
</svg>
