<svg width="223" height="79" viewBox="0 0 223 79" fill="none" xmlns="http://www.w3.org/2000/svg">
<path d="M17.8411 76.5648L12.1348 67.7651H12.108L12.1437 76.5929L11.1852 76.5975L11.1406 66.5569L12.4335 66.5522L17.8009 74.8601H17.8277L17.792 66.5288L18.7416 66.5241L18.7862 76.5648H17.8411Z" fill="white"/>
<path d="M30.4439 71.9004C30.3458 73.2632 29.8064 74.4105 28.8301 75.3331C27.8627 76.2463 26.7259 76.7053 25.4108 76.7146C24.0377 76.7193 22.8385 76.2229 21.8221 75.2207C20.7878 74.1998 20.2662 72.9728 20.2617 71.5398C20.2573 70.0927 20.761 68.8563 21.7775 67.8354C22.7716 66.8332 23.9664 66.3274 25.3528 66.3227C26.931 66.3134 28.2327 66.9222 29.2625 68.1445C29.5434 68.4723 29.7485 68.8048 29.8867 69.1467L28.7766 69.1514C28.4467 68.5566 27.9608 68.0836 27.3144 67.7277C26.6947 67.3905 26.0483 67.2219 25.3707 67.2266C24.2294 67.2313 23.2575 67.6528 22.4462 68.491C21.6259 69.334 21.2202 70.3502 21.2247 71.5445C21.2291 72.7433 21.6482 73.7596 22.4863 74.5838C23.3155 75.3987 24.3007 75.8014 25.4464 75.7968C26.3068 75.7921 27.1093 75.5111 27.8449 74.9585C28.6072 74.3871 29.0931 73.6706 29.2982 72.8136L23.9664 72.837L23.9619 71.9285L30.4439 71.9004Z" fill="white"/>
<path d="M37.906 76.4711L37.8882 71.7645L32.9442 71.7879L32.962 76.4992L32.0036 76.5039L31.959 66.4632L32.9175 66.4585L32.9353 70.8841L37.8793 70.8607L37.8614 66.4351L38.8154 66.4304L38.86 76.4711H37.906Z" fill="white"/>
<path d="M40.7458 76.4617L40.7012 66.421L45.926 66.3976L45.9304 67.3108L41.6641 67.3296L41.6775 70.9309L45.8056 70.9122L45.8101 71.8254L41.6819 71.8441L41.6998 75.5485L45.9661 75.5298L45.9706 76.4383L40.7458 76.4617ZM44.3924 65.5687L43.2779 64.5806L42.1411 65.5781L40.9687 65.5828L42.8321 63.8781L43.6836 63.8734L45.5381 65.5593L44.3924 65.5687ZM42.8945 79L42.8856 77.2859L43.8441 77.2813L43.853 78.9953L42.8945 79Z" fill="white"/>
<path d="M53.5235 67.2734L53.5636 76.4009L52.6051 76.4055L52.565 67.2781L50.3716 67.2875L50.3672 66.3742L55.699 66.3508L55.7035 67.264L53.5235 67.2734Z" fill="white"/>
<path d="M62.7107 76.3587L62.6929 71.6521L57.7489 71.6756L57.7667 76.3821L56.8083 76.3868L56.7637 66.3461L57.7221 66.3415L57.74 70.767L62.6839 70.7436L62.6661 66.318L63.6201 66.3134L63.6647 76.354L62.7107 76.3587Z" fill="white"/>
<path d="M72.0994 72.5326C72.0994 72.9072 72.0771 73.2631 72.0281 73.6003C71.9656 73.9937 71.872 74.3356 71.7472 74.6212C71.1989 75.8716 70.2359 76.5039 68.8628 76.5085C67.4898 76.5132 66.5224 75.8951 65.9607 74.6493C65.8314 74.3637 65.7378 74.0218 65.6798 73.6331C65.6219 73.2959 65.5951 72.94 65.5951 72.5653L65.5684 66.3087L66.5268 66.304L66.5536 72.5607C66.5536 72.8885 66.5759 73.1976 66.6205 73.4879C66.6784 73.8579 66.7631 74.1529 66.8835 74.373C67.3159 75.1926 67.9757 75.6 68.8628 75.5953C69.75 75.5907 70.4053 75.1785 70.8288 74.3543C70.9448 74.1342 71.0295 73.8345 71.0829 73.4645C71.1275 73.1741 71.1498 72.8651 71.1498 72.5372L71.1231 66.2806L72.0771 66.2759L72.0994 72.5326Z" fill="white"/>
<path d="M81.4656 76.2697L80.0658 72.8979L75.6256 72.9166L74.248 76.3025L73.2539 76.3072L77.2884 66.2478L78.3584 66.2431L82.5043 76.2651L81.4656 76.2697ZM78.9602 65.4048L77.8457 64.4167L76.7133 65.4142L75.5409 65.4189L77.4043 63.7142L78.2558 63.7095L80.1104 65.3955L78.9602 65.4048ZM77.8323 67.3905L75.9778 72.0081L79.6869 71.9893L77.8323 67.3905ZM77.4088 78.8361L77.3999 77.1221L78.3584 77.1174L78.3673 78.8314L77.4088 78.8361Z" fill="white"/>
<path d="M85.8399 67.1235L85.88 76.251L84.9215 76.2556L84.8814 67.1282L82.688 67.1376L82.6836 66.2243L88.0154 66.2009L88.0199 67.1141L85.8399 67.1235Z" fill="white"/>
<path d="M94.9121 67.0767L94.9523 76.2041L93.9938 76.2088L93.9537 67.0814L91.7603 67.0907L91.7559 66.1775L97.0877 66.1541L97.0921 67.0673L94.9121 67.0767Z" fill="white"/>
<path d="M103.765 71.4929C103.235 72.0549 102.562 72.3686 101.75 72.4295L104.465 76.1573L103.262 76.162L100.003 71.6334L101.037 71.624C101.47 71.61 101.808 71.5585 102.058 71.4742C103.106 71.1323 103.632 70.4205 103.627 69.3386C103.623 68.4488 103.271 67.8119 102.571 67.4139C102.299 67.2593 101.996 67.1563 101.67 67.1001C101.425 67.0626 101.108 67.0439 100.712 67.0439L99.0489 67.0533L99.089 76.1807L98.1305 76.1854L98.0859 66.1447L100.511 66.1354C100.725 66.1354 100.917 66.1401 101.091 66.1447C101.314 66.1588 101.519 66.1728 101.701 66.1963C102.174 66.2571 102.557 66.3602 102.865 66.51C104.002 67.0767 104.572 68.0274 104.581 69.3621C104.577 70.2097 104.309 70.9169 103.765 71.4929Z" fill="white"/>
<path d="M112.511 72.3406C112.511 72.7152 112.489 73.0711 112.44 73.4083C112.378 73.8017 112.284 74.1436 112.159 74.4293C111.611 75.6797 110.648 76.3119 109.275 76.3166C107.902 76.3212 106.934 75.7031 106.373 74.4574C106.243 74.1717 106.15 73.8298 106.092 73.4411C106.034 73.1039 106.007 72.7527 106.007 72.3734L105.98 66.1167L106.939 66.112L106.966 72.3687C106.966 72.6965 106.988 73.0056 107.033 73.2959C107.091 73.6659 107.175 73.9609 107.296 74.181C107.728 75.0006 108.388 75.408 109.275 75.4033C110.162 75.3987 110.817 74.9866 111.241 74.1623C111.357 73.9422 111.442 73.6425 111.495 73.2725C111.54 72.9822 111.562 72.6731 111.562 72.3453L111.535 66.0886L112.489 66.0839L112.511 72.3406ZM108.504 65.5313L108.076 64.7539L110.635 63.2599L111.054 64.0701L108.504 65.5313Z" fill="white"/>
<path d="M123.457 73.4411C122.494 75.3191 121.032 76.2604 119.071 76.2697C117.693 76.2744 116.512 75.7827 115.535 74.7805C114.55 73.7736 114.055 72.5513 114.051 71.1042C114.046 69.6431 114.523 68.4067 115.486 67.3998C116.445 66.3977 117.622 65.8919 119.017 65.8872C120.524 65.8778 121.786 66.4726 122.793 67.6574C123.074 67.9852 123.274 68.299 123.404 68.6081L122.334 68.6128C121.549 67.3952 120.435 66.7864 119.004 66.7957C117.916 66.8004 116.975 67.2359 116.177 68.107C115.393 68.964 115.005 69.9662 115.009 71.1136C115.014 72.2422 115.419 73.235 116.226 74.0827C117.038 74.935 117.978 75.3612 119.057 75.3565C119.726 75.3518 120.354 75.1786 120.938 74.832C121.482 74.5042 121.968 74.0406 122.387 73.4458L123.457 73.4411Z" fill="white"/>
<path d="M137.526 73.3756C136.563 75.2535 135.1 76.1948 133.139 76.2042C131.761 76.2089 130.58 75.7171 129.604 74.7149C128.618 73.7081 128.124 72.4858 128.119 71.0387C128.115 69.5775 128.592 68.3412 129.555 67.3343C130.513 66.3321 131.69 65.8263 133.085 65.8216C134.592 65.8123 135.854 66.407 136.861 67.5919C137.142 67.9197 137.343 68.2335 137.472 68.5425L136.402 68.5472C135.618 67.3296 134.503 66.7208 133.072 66.7302C131.984 66.7349 131.044 67.1704 130.246 68.0414C129.461 68.8985 129.073 69.9007 129.078 71.048C129.082 72.1767 129.488 73.1695 130.295 74.0171C131.106 74.8695 132.047 75.2956 133.126 75.291C133.794 75.2863 134.423 75.113 135.007 74.7664C135.551 74.4386 136.037 73.975 136.456 73.3802L137.526 73.3756Z" fill="white"/>
<path d="M144.957 75.97L144.939 71.2634L139.995 71.2868L140.013 75.9934L139.054 75.9981L139.01 65.9574L139.968 65.9527L139.986 70.3783L144.93 70.3549L144.912 65.9293L145.866 65.9246L145.911 75.9653L144.957 75.97Z" fill="white"/>
<path d="M149.504 64.0654C149.473 64.1123 149.428 64.1778 149.361 64.2528L149.281 64.3464L149.022 64.6134C148.973 64.6742 148.924 64.7398 148.88 64.8147C148.804 64.9318 148.759 65.1285 148.751 65.3908L147.948 65.3955V65.2175C147.948 64.9927 148.006 64.7726 148.122 64.5619C148.153 64.501 148.211 64.4214 148.291 64.323C148.323 64.2855 148.381 64.2247 148.456 64.1497L148.626 63.9765C148.679 63.9156 148.733 63.8547 148.777 63.7891C148.844 63.6908 148.875 63.5831 148.875 63.466C148.875 63.2787 148.817 63.1335 148.71 63.0305C148.59 62.9134 148.461 62.8525 148.327 62.8525C148.135 62.8525 147.979 62.9462 147.863 63.1335C147.823 63.1991 147.797 63.274 147.783 63.3583C147.774 63.4051 147.77 63.5409 147.774 63.761L146.963 63.7657V63.5081C146.963 63.1522 147.101 62.8338 147.382 62.5528C147.641 62.2999 147.961 62.1734 148.345 62.1688C148.737 62.1688 149.054 62.2905 149.299 62.534C149.562 62.801 149.691 63.1148 149.696 63.4707C149.678 63.6721 149.62 63.8734 149.504 64.0654ZM147.868 75.9559L147.823 65.9153L148.777 65.9106L148.822 75.9513L147.868 75.9559Z" fill="white"/>
<path d="M158.363 75.9091L157.422 75.9138L153.441 65.8918L154.502 65.8872L157.908 74.6681L161.256 65.8591L162.291 65.8544L158.363 75.9091Z" fill="white"/>
<path d="M163.418 75.8857L163.373 65.845L164.332 65.8403L164.376 75.881L163.418 75.8857Z" fill="white"/>
<path d="M166.254 75.8716L166.209 65.831L171.434 65.8075L171.438 66.7208L167.172 66.7395L167.185 70.3408L171.313 70.3221L171.318 71.2353L167.19 71.254L167.208 74.9584L171.474 74.9397L171.478 75.8482L166.254 75.8716ZM169.905 64.9786L168.79 63.9905L167.653 64.988L166.481 64.9927L168.344 63.288L169.196 63.2833L171.05 64.9693L169.905 64.9786ZM168.402 78.4099L168.393 76.6959L169.352 76.6912L169.361 78.4052L168.402 78.4099Z" fill="white"/>
<path d="M175.459 66.7021L175.499 75.8295L174.541 75.8342L174.501 66.7067L172.307 66.7161L172.303 65.8029L177.635 65.7795L177.639 66.6927L175.459 66.7021Z" fill="white"/>
<path d="M188.958 75.7639L183.252 66.9643H183.225L183.261 75.792L182.302 75.7967L182.258 65.7561L183.551 65.7514L188.918 74.0593H188.945L188.909 65.728L189.863 65.7233L189.908 75.7639H188.958Z" fill="white"/>
<path d="M199.261 75.7171L197.861 72.3452L193.421 72.364L192.043 75.7499L191.049 75.7546L195.083 65.6952L196.153 65.6905L200.299 75.7124L199.261 75.7171ZM195.627 66.8379L193.773 71.4554L197.482 71.4367L195.627 66.8379Z" fill="white"/>
<path d="M210.365 75.6656L210.325 66.7255H210.298L206.763 75.6843L205.951 75.689L202.363 66.7629H202.336L202.376 75.7031L201.418 75.7078L201.373 65.6671L202.844 65.6624L206.353 74.1951L209.803 65.6296L211.279 65.6249L211.323 75.6656H210.365Z" fill="white"/>
<path d="M220.178 47.0563C220.106 46.9907 219.999 46.9158 219.852 46.8502C220.24 46.794 220.525 46.6582 220.713 46.4475C220.891 46.2461 220.989 45.9932 220.989 45.6888C220.989 45.4546 220.927 45.2439 220.815 45.0472C220.699 44.8599 220.552 44.7287 220.365 44.6538C220.178 44.5789 219.906 44.5414 219.545 44.5461L217.748 44.5555L217.766 48.7844L218.305 48.7797L218.296 46.9017L218.916 46.897C219.05 46.897 219.148 46.9064 219.215 46.9158C219.295 46.9345 219.375 46.972 219.46 47.0282C219.54 47.0844 219.629 47.1687 219.732 47.3092C219.83 47.4403 219.968 47.637 220.12 47.8946L220.664 48.7703L221.328 48.7656L220.623 47.6183C220.485 47.3935 220.334 47.2061 220.178 47.0563ZM219.451 46.4194L218.301 46.424L218.296 45.0191L219.571 45.0144C219.87 45.0144 220.093 45.08 220.227 45.2111C220.36 45.3329 220.436 45.5015 220.436 45.7028C220.436 45.8433 220.401 45.9651 220.329 46.0822C220.258 46.2039 220.16 46.2929 220.017 46.3398C219.879 46.3866 219.692 46.4147 219.451 46.4194Z" fill="white"/>
<path d="M219.335 42.9164C217.329 42.9257 215.702 44.6491 215.711 46.7565C215.72 48.8686 217.36 50.5827 219.367 50.5733C221.377 50.5639 223.009 48.8359 223 46.7238C222.991 44.6117 221.346 42.907 219.335 42.9164ZM219.367 50.016C217.646 50.0254 216.241 48.5595 216.233 46.7565C216.224 44.9488 217.619 43.4737 219.335 43.4643C221.056 43.4549 222.46 44.9207 222.469 46.7238C222.478 48.5315 221.083 50.0066 219.367 50.016Z" fill="white"/>
<path d="M201.321 39.8864L201.303 37.5495H201.321V15.7447C202.261 15.6464 203.331 15.1828 204.201 14.574C204.9 14.0822 205.435 13.4594 205.783 12.9911C206.795 11.6189 207.138 10.1765 207.129 8.49992C207.005 6.10215 205.663 3.78867 203.403 3.42807C201.133 3.04405 199.016 4.74403 198.682 7.23079C198.271 10.0594 200.349 12.5977 202.948 12.4619C202.948 12.4619 204.192 14.2977 201.156 15.6979H197.411C195.432 15.6979 193.845 17.4635 193.845 19.6177V39.7318C193.845 42.0874 193.073 43.2489 192.668 43.9326C192.039 44.9957 190.251 46.8408 187.617 46.9813C186.475 47.0422 185.517 46.8596 184.639 46.5037C183.64 46.1009 182.824 45.4593 182.187 44.7615C181.674 44.1995 181.34 43.675 181.086 43.1739C180.479 41.9891 180.43 40.9073 180.43 39.6194V31.9578C180.43 31.6862 180.453 31.4146 180.453 31.1429C180.453 22.5821 174.087 15.6839 166.218 15.6839C163.788 15.6839 161.484 16.3114 159.464 17.4869V0.0281067H155.595C153.593 0.0281067 152.006 1.79365 152.006 3.96663V54.6945H155.902C157.877 54.6945 159.464 52.9289 159.464 50.7747L159.504 30.7074C159.504 26.6518 162.536 23.3455 166.24 23.3455C169.972 23.3455 172.999 26.6518 172.999 30.7074V37.6853C173.034 40.4015 173.097 42.9117 173.908 45.1268C174.697 47.2811 176.146 49.2667 177.626 50.859C179.356 52.7182 182.303 54.0529 185.223 54.5587C187.594 54.9708 190.073 54.6476 191.687 53.9686C195.151 52.5074 196.328 51.1212 197.603 49.7865C201.289 54.1559 206.746 55.7154 211.917 54.0857V45.7731C210.807 46.6348 209.47 46.9579 208.012 46.9579C204.334 46.9626 201.365 43.8951 201.321 39.8864Z" fill="white"/>
<path d="M77.4762 15.6792C75.4389 15.6792 73.7627 17.4494 73.7627 19.6037L73.8608 39.9332C73.8608 41.6894 73.25 43.1037 72.3852 44.2838C71.2261 45.8574 69.5097 46.9158 67.2718 46.9158C65.4841 46.9158 63.7856 46.307 62.5775 45.1315C61.1732 43.7687 60.393 41.68 60.393 39.4742V15.6839H56.6527C55.2574 15.6839 54.0136 16.5034 53.3895 17.7257C49.141 15.1172 43.8181 15.0048 39.4848 17.4962V15.6839H35.7713C33.6939 15.6839 32.0399 17.4541 32.0399 19.6083V39.7927C32.0399 43.7406 29.0352 46.9158 25.2994 46.9158C21.5858 46.9158 18.5588 43.7406 18.5588 39.7927V0H14.8497C12.7857 0 11.1139 1.74681 11.1139 3.92448V7.74124H3.71355C1.67176 7.74124 0 9.49274 0 11.6704V15.5949H11.1139V39.8957C11.2655 48.0397 17.5513 54.6195 25.2994 54.6195C27.7468 54.6195 30.0204 53.9873 32.0399 52.8493V54.6664H35.7713C37.7863 54.6664 39.4848 52.9196 39.4848 50.7419V43.9279H39.5027V40.4343C39.525 39.9145 39.525 39.4134 39.5027 38.8701L39.4848 30.4498C39.4848 26.5253 42.4673 23.3455 46.2031 23.3455C49.7205 23.3455 52.6539 26.1788 52.957 29.8082L52.9704 39.0059C52.6985 47.9648 59.1894 54.6664 67.3431 54.6664C70.9987 54.6664 74.0168 53.224 76.3662 51.0135C79.1034 48.4378 81.163 44.621 81.1407 40.3406L81.065 15.6698H77.4762V15.6792Z" fill="white"/>
<path d="M80.0347 2.67877C79.1564 2.49145 77.6407 2.47272 76.1963 2.90825C75.269 3.18924 73.4724 3.85424 72.8349 4.50052C72.6967 5.76028 72.2955 7.76935 70.909 9.90487C68.3011 13.909 64.543 15.5902 64.543 15.5902C68.7246 15.164 71.5911 13.4125 73.8201 11.7172C79.0361 7.74125 79.9277 2.63663 80.0347 2.67877Z" fill="white"/>
<path d="M145.302 33.1895C143.781 33.1567 142.399 33.8872 141.379 34.8988C140.264 36.004 139.537 37.2544 139.346 39.0855C139.167 40.7527 139.524 41.9844 140.384 43.5064C140.598 43.7781 141.071 44.4009 141.303 44.6397C140.157 46.3304 135.539 46.7846 133.14 45.9276C124.157 42.7243 122.187 33.7983 125.646 26.53C126.81 24.0854 129.329 21.7438 132.347 20.5543C134.513 19.702 136.974 19.51 139.199 19.9924L139.105 20.4466C138.588 22.8538 140.527 25.1438 142.899 25.1438C145.083 25.1438 146.768 23.1722 146.528 20.8775C146.488 19.88 145.988 18.6764 144.994 17.8381C142.899 16.0445 140.438 15.637 138.236 15.6604C133.787 15.726 128.905 16.6205 125.343 19.8425C123.921 21.1163 122.851 22.2028 121.781 23.7155C119.057 27.579 115.625 34.3556 112.04 40.2516C109.383 44.607 104.372 49.1215 98.6929 48.3956C93.5706 47.7306 90.5971 44.251 89.5272 40.4343C88.8763 38.1208 89.0501 35.6575 89.5227 33.6999C89.9774 31.8735 91.4932 29.0542 94.11 27.3449C96.2053 25.9774 98.2382 25.6824 98.2382 25.6824C98.2382 29.8129 101.452 33.0443 105.367 33.0443C109.508 33.0443 112.687 29.4148 112.446 25.1017C112.21 19.6364 107.288 16.7329 103.334 15.9836C93.3967 14.1244 83.6559 19.997 81.5384 31.4988C79.2514 43.9326 87.9089 52.8025 96.3123 54.479C99.2056 55.0223 103.588 54.5025 107.306 52.0532V52.0298C107.738 51.7581 108.148 51.4865 108.576 51.1681C108.924 50.8309 109.357 50.3532 109.811 49.7865C108.189 51.805 105.26 56.7082 106.686 62.534C106.686 62.534 118.17 58.9374 118.687 39.1511C119.516 43.7546 122.004 47.6697 125.08 50.2783C127.857 52.6339 131.089 53.9452 133.234 54.3011C134.558 54.5212 135.824 54.7507 137.028 54.7319C144.196 54.6195 149.131 50.3719 151.164 44.9488C151.164 44.9254 152.292 41.1742 151.77 38.7343C151.512 37.4699 150.616 33.3112 145.302 33.1895Z" fill="white"/>
</svg>
