<svg width="90" height="53" viewBox="0 0 90 53" fill="none" xmlns="http://www.w3.org/2000/svg">
<g clip-path="url(#clip0_106_1671)">
<path d="M33.2646 27.123H86.0946C88.2546 27.123 90.0096 28.8721 90.0096 31.0247C90.0096 33.1774 88.2546 34.9264 86.0946 34.9264H33.2646C31.1046 34.9264 29.3496 33.1774 29.3496 31.0247C29.3496 28.8631 31.1046 27.123 33.2646 27.123Z" fill="white"/>
<path d="M89.991 12.8703C89.991 12.8344 90 12.7985 90 12.7716C90 12.664 89.973 12.5653 89.964 12.4577C89.955 12.3411 89.964 12.2245 89.946 12.0989C89.649 10.3858 88.137 9.18389 86.427 8.98657C86.076 8.91481 85.707 8.86997 85.329 8.86997H25.713C22.842 8.56501 20.943 7.41693 19.98 5.41676C19.224 3.47937 20.088 2.19675 22.572 1.65859C22.788 1.55096 22.896 1.55096 22.788 1.55096C19.332 -0.386424 16.2 -0.494056 13.5 1.12043C11.448 2.51965 10.692 4.2328 11.448 6.49308C11.754 7.59631 12.339 8.51119 13.023 9.3274C13.095 9.40813 13.05 9.5337 12.951 9.56061C7.569 10.9598 3.861 13.2022 1.62 16.485C0.54 18.1981 0 19.696 0 21.0952C0 25.6068 2.592 29.2573 7.776 32.1544C10.26 33.5537 12.852 34.5134 15.444 35.0516C15.876 35.1592 15.876 35.0516 15.444 34.7287C11.556 32.6926 10.044 30.1094 10.8 26.9971C11.952 22.6559 17.631 17.1308 25.695 16.6643H85.32C85.518 16.6643 85.716 16.6374 85.905 16.6195C86.058 16.6195 86.148 16.6195 86.148 16.6195C88.002 16.6195 89.532 15.31 89.901 13.5699C89.91 13.534 89.91 13.4982 89.919 13.4623C89.955 13.2739 89.982 13.0766 89.991 12.8703Z" fill="white"/>
<path d="M33.2646 45.1953H86.0946C88.2546 45.1953 90.0096 46.9443 90.0096 49.097C90.0096 51.2496 88.2546 52.9987 86.0946 52.9987H33.2646C31.1046 52.9987 29.3496 51.2496 29.3496 49.097C29.3496 46.9443 31.1046 45.1953 33.2646 45.1953Z" fill="white"/>
</g>
<defs>
<clipPath id="clip0_106_1671">
<rect width="90" height="53" fill="white"/>
</clipPath>
</defs>
</svg>
