<svg width="63" height="64" viewBox="0 0 63 64" fill="none" xmlns="http://www.w3.org/2000/svg">
<path d="M26.2573 32.4974C26.2573 29.5954 28.6084 27.2423 31.5096 27.2423C34.4107 27.2423 36.7631 29.5954 36.7631 32.4974C36.7631 35.3994 34.4107 37.7525 31.5096 37.7525C28.6084 37.7525 26.2573 35.3994 26.2573 32.4974ZM23.4173 32.4974C23.4173 36.9681 27.0402 40.592 31.5096 40.592C35.979 40.592 39.6019 36.9681 39.6019 32.4974C39.6019 28.0267 35.979 24.4028 31.5096 24.4028C27.0402 24.4028 23.4173 28.0267 23.4173 32.4974ZM38.0311 24.0818C38.0309 24.456 38.1417 24.8217 38.3494 25.1329C38.5571 25.4441 38.8523 25.6867 39.1978 25.83C39.5433 25.9733 39.9235 26.0109 40.2904 25.9381C40.6573 25.8652 40.9943 25.6852 41.2589 25.4207C41.5235 25.1563 41.7038 24.8193 41.7769 24.4524C41.85 24.0854 41.8127 23.7051 41.6697 23.3594C41.5267 23.0136 41.2844 22.7181 40.9735 22.5101C40.6626 22.3021 40.297 22.191 39.923 22.1909H39.9222C39.4209 22.1911 38.9401 22.3904 38.5855 22.7449C38.2309 23.0995 38.0315 23.5803 38.0311 24.0818ZM25.1428 45.3289C23.6063 45.2589 22.7711 45.0029 22.2162 44.7866C21.4804 44.5001 20.9554 44.1588 20.4034 43.6075C19.8515 43.0561 19.5098 42.5315 19.2246 41.7955C19.0083 41.2406 18.7524 40.405 18.6825 38.8681C18.6061 37.2064 18.5909 36.7073 18.5909 32.4975C18.5909 28.2878 18.6074 27.79 18.6825 26.127C18.7525 24.59 19.0103 23.7561 19.2246 23.1995C19.5111 22.4635 19.8522 21.9384 20.4034 21.3863C20.9546 20.8342 21.4791 20.4924 22.2162 20.2072C22.7709 19.9907 23.6063 19.7347 25.1428 19.6649C26.8039 19.5884 27.3029 19.5732 31.5096 19.5732C35.7162 19.5732 36.2157 19.5897 37.8783 19.6649C39.4148 19.7349 40.2485 19.9928 40.8049 20.2072C41.5407 20.4924 42.0656 20.8349 42.6176 21.3863C43.1695 21.9377 43.51 22.4635 43.7964 23.1995C44.0127 23.7544 44.2687 24.59 44.3385 26.127C44.4149 27.79 44.4302 28.2878 44.4302 32.4975C44.4302 36.7073 44.4149 37.205 44.3385 38.8681C44.2686 40.405 44.0114 41.2404 43.7964 41.7955C43.51 42.5315 43.1688 43.0566 42.6176 43.6075C42.0664 44.1583 41.5407 44.5001 40.8049 44.7866C40.2501 45.003 39.4148 45.2591 37.8783 45.3289C36.2171 45.4053 35.7181 45.4206 31.5096 45.4206C27.301 45.4206 26.8034 45.4053 25.1428 45.3289ZM25.0123 16.8289C23.3346 16.9053 22.1882 17.1714 21.187 17.5611C20.1502 17.9635 19.2724 18.5034 18.3953 19.3794C17.5182 20.2553 16.9799 21.1347 16.5776 22.1719C16.188 23.1739 15.922 24.32 15.8456 25.9982C15.7679 27.679 15.7501 28.2164 15.7501 32.4974C15.7501 36.7784 15.7679 37.3158 15.8456 38.9966C15.922 40.6749 16.188 41.8209 16.5776 42.8229C16.9799 43.8595 17.5183 44.7398 18.3953 45.6154C19.2723 46.491 20.1502 47.0302 21.187 47.4337C22.1901 47.8234 23.3346 48.0895 25.0123 48.1659C26.6935 48.2424 27.2298 48.2614 31.5096 48.2614C35.7893 48.2614 36.3265 48.2436 38.0069 48.1659C39.6847 48.0895 40.8303 47.8234 41.8321 47.4337C42.8684 47.0302 43.7467 46.4914 44.6238 45.6154C45.5009 44.7395 46.0381 43.8595 46.4416 42.8229C46.8312 41.8209 47.0984 40.6748 47.1736 38.9966C47.25 37.3145 47.2678 36.7784 47.2678 32.4974C47.2678 28.2164 47.25 27.679 47.1736 25.9982C47.0972 24.3199 46.8312 23.1733 46.4416 22.1719C46.0381 21.1353 45.4996 20.2567 44.6238 19.3794C43.7481 18.502 42.8684 17.9635 41.8334 17.5611C40.8303 17.1714 39.6846 16.904 38.0081 16.8289C36.3278 16.7524 35.7906 16.7334 31.5108 16.7334C27.2311 16.7334 26.6935 16.7512 25.0123 16.8289Z" fill="#BC9F85"/>
<path d="M26.2573 32.4974C26.2573 29.5954 28.6084 27.2423 31.5096 27.2423C34.4107 27.2423 36.7631 29.5954 36.7631 32.4974C36.7631 35.3994 34.4107 37.7525 31.5096 37.7525C28.6084 37.7525 26.2573 35.3994 26.2573 32.4974ZM23.4173 32.4974C23.4173 36.9681 27.0402 40.592 31.5096 40.592C35.979 40.592 39.6019 36.9681 39.6019 32.4974C39.6019 28.0267 35.979 24.4028 31.5096 24.4028C27.0402 24.4028 23.4173 28.0267 23.4173 32.4974ZM38.0311 24.0818C38.0309 24.456 38.1417 24.8217 38.3494 25.1329C38.5571 25.4441 38.8523 25.6867 39.1978 25.83C39.5433 25.9733 39.9235 26.0109 40.2904 25.9381C40.6573 25.8652 40.9943 25.6852 41.2589 25.4207C41.5235 25.1563 41.7038 24.8193 41.7769 24.4524C41.85 24.0854 41.8127 23.7051 41.6697 23.3594C41.5267 23.0136 41.2844 22.7181 40.9735 22.5101C40.6626 22.3021 40.297 22.191 39.923 22.1909H39.9222C39.4209 22.1911 38.9401 22.3904 38.5855 22.7449C38.2309 23.0995 38.0315 23.5803 38.0311 24.0818ZM25.1428 45.3289C23.6063 45.2589 22.7711 45.0029 22.2162 44.7866C21.4804 44.5001 20.9554 44.1588 20.4034 43.6075C19.8515 43.0561 19.5098 42.5315 19.2246 41.7955C19.0083 41.2406 18.7524 40.405 18.6825 38.8681C18.6061 37.2064 18.5909 36.7073 18.5909 32.4975C18.5909 28.2878 18.6074 27.79 18.6825 26.127C18.7525 24.59 19.0103 23.7561 19.2246 23.1995C19.5111 22.4635 19.8522 21.9384 20.4034 21.3863C20.9546 20.8342 21.4791 20.4924 22.2162 20.2072C22.7709 19.9907 23.6063 19.7347 25.1428 19.6649C26.8039 19.5884 27.3029 19.5732 31.5096 19.5732C35.7162 19.5732 36.2157 19.5897 37.8783 19.6649C39.4148 19.7349 40.2485 19.9928 40.8049 20.2072C41.5407 20.4924 42.0656 20.8349 42.6176 21.3863C43.1695 21.9377 43.51 22.4635 43.7964 23.1995C44.0127 23.7544 44.2687 24.59 44.3385 26.127C44.4149 27.79 44.4302 28.2878 44.4302 32.4975C44.4302 36.7073 44.4149 37.205 44.3385 38.8681C44.2686 40.405 44.0114 41.2404 43.7964 41.7955C43.51 42.5315 43.1688 43.0566 42.6176 43.6075C42.0664 44.1583 41.5407 44.5001 40.8049 44.7866C40.2501 45.003 39.4148 45.2591 37.8783 45.3289C36.2171 45.4053 35.7181 45.4206 31.5096 45.4206C27.301 45.4206 26.8034 45.4053 25.1428 45.3289ZM25.0123 16.8289C23.3346 16.9053 22.1882 17.1714 21.187 17.5611C20.1502 17.9635 19.2724 18.5034 18.3953 19.3794C17.5182 20.2553 16.9799 21.1347 16.5776 22.1719C16.188 23.1739 15.922 24.32 15.8456 25.9982C15.7679 27.679 15.7501 28.2164 15.7501 32.4974C15.7501 36.7784 15.7679 37.3158 15.8456 38.9966C15.922 40.6749 16.188 41.8209 16.5776 42.8229C16.9799 43.8595 17.5183 44.7398 18.3953 45.6154C19.2723 46.491 20.1502 47.0302 21.187 47.4337C22.1901 47.8234 23.3346 48.0895 25.0123 48.1659C26.6935 48.2424 27.2298 48.2614 31.5096 48.2614C35.7893 48.2614 36.3265 48.2436 38.0069 48.1659C39.6847 48.0895 40.8303 47.8234 41.8321 47.4337C42.8684 47.0302 43.7467 46.4914 44.6238 45.6154C45.5009 44.7395 46.0381 43.8595 46.4416 42.8229C46.8312 41.8209 47.0984 40.6748 47.1736 38.9966C47.25 37.3145 47.2678 36.7784 47.2678 32.4974C47.2678 28.2164 47.25 27.679 47.1736 25.9982C47.0972 24.3199 46.8312 23.1733 46.4416 22.1719C46.0381 21.1353 45.4996 20.2567 44.6238 19.3794C43.7481 18.502 42.8684 17.9635 41.8334 17.5611C40.8303 17.1714 39.6846 16.904 38.0081 16.8289C36.3278 16.7524 35.7906 16.7334 31.5108 16.7334C27.2311 16.7334 26.6935 16.7512 25.0123 16.8289Z" fill="#BC9F85"/>
</svg>
