<svg width="523" height="51" viewBox="0 0 523 51" fill="none" xmlns="http://www.w3.org/2000/svg">
<g clip-path="url(#clip0_106_2324)">
<path d="M521.2 29.8663C518.71 26.2063 514.59 23.7163 508.61 22.1463C508.5 22.1163 508.45 21.9863 508.53 21.8963C509.29 20.9863 509.94 19.9663 510.28 18.7363C511.12 16.2163 510.28 14.3063 508 12.7463C505 10.9563 501.52 11.0763 497.68 13.2263C497.56 13.2263 497.68 13.2263 497.92 13.3463C500.68 13.9463 501.64 15.3863 500.8 17.5363C499.73 19.7663 497.62 21.0463 494.43 21.3863H484.28H474.28H188.2C187.91 21.3863 187.62 21.4163 187.33 21.4663H28.55C19.59 20.9363 13.28 14.7863 12 9.93632C11.16 6.46632 12.84 3.59632 17.16 1.31632C17.64 0.95632 17.64 0.84632 17.16 0.95632C14.28 1.55632 11.4 2.63632 8.64 4.19632C2.88 7.42632 0 11.4963 0 16.5263C0 18.0863 0.6 19.7563 1.8 21.6763C4.29 25.3363 8.41 27.8263 14.39 29.3963C14.5 29.4263 14.55 29.5563 14.47 29.6463C13.71 30.5563 13.06 31.5763 12.72 32.8063C11.88 35.3263 12.72 37.2363 15 38.7963C18 40.5963 21.48 40.4763 25.32 38.3163C25.44 38.3163 25.32 38.3163 25.08 38.1963C22.32 37.5963 21.36 36.1663 22.2 34.0063C23.27 31.7763 25.38 30.4963 28.57 30.1563H202.96V30.0763H474.28H484.28H494.45C503.41 30.6063 509.72 36.7563 511 41.6063C511.84 45.0763 510.16 47.9463 505.84 50.2263C505.36 50.5863 505.36 50.7063 505.84 50.5863C508.72 49.9863 511.6 48.9063 514.36 47.3463C520.12 44.1163 523 40.0463 523 35.0163C523 33.4563 522.4 31.7863 521.2 29.8663Z" fill="#E3DCD2"/>
</g>
<defs>
<clipPath id="clip0_106_2324">
<rect width="523" height="49.72" fill="white" transform="translate(0 0.916504)"/>
</clipPath>
</defs>
</svg>
