<svg width="31" height="32" viewBox="0 0 31 32" fill="none" xmlns="http://www.w3.org/2000/svg">
<path d="M28.7857 12.6786H18.8214V2.71429C18.8214 1.49158 17.8298 0.5 16.6071 0.5H14.3929C13.1702 0.5 12.1786 1.49158 12.1786 2.71429V12.6786H2.21429C0.991585 12.6786 0 13.6702 0 14.8929V17.1071C0 18.3298 0.991585 19.3214 2.21429 19.3214H12.1786V29.2857C12.1786 30.5084 13.1702 31.5 14.3929 31.5H16.6071C17.8298 31.5 18.8214 30.5084 18.8214 29.2857V19.3214H28.7857C30.0084 19.3214 31 18.3298 31 17.1071V14.8929C31 13.6702 30.0084 12.6786 28.7857 12.6786Z" fill="white"/>
</svg>
