<svg width="63" height="64" viewBox="0 0 63 64" fill="none" xmlns="http://www.w3.org/2000/svg">
<path fill-rule="evenodd" clip-rule="evenodd" d="M45.846 20.5667C47.3942 20.9848 48.611 22.2047 49.0223 23.751C49.7707 26.5574 49.7707 32.4164 49.7707 32.4164C49.7707 32.4164 49.7707 38.2754 49.0223 41.0818C48.6053 42.6339 47.3885 43.8538 45.846 44.2661C43.0468 45.0164 31.8157 45.0164 31.8157 45.0164C31.8157 45.0164 20.5902 45.0164 17.7853 44.2661C16.2371 43.848 15.0203 42.6281 14.609 41.0818C13.8607 38.2754 13.8607 32.4164 13.8607 32.4164C13.8607 32.4164 13.8607 26.5574 14.609 23.751C15.026 22.199 16.2429 20.979 17.7853 20.5667C20.5902 19.8164 31.8157 19.8164 31.8157 19.8164C31.8157 19.8164 43.0468 19.8164 45.846 20.5667ZM37.5569 32.4164L28.2281 37.8172V27.0156L37.5569 32.4164Z" fill="#BC9F85"/>
</svg>
